<svg width="22" height="22" viewBox="0 0 22 22" fill="none" xmlns="http://www.w3.org/2000/svg">
<path d="M7.79199 13.0625C7.79199 14.8225 9.24033 16.2708 11.0003 16.2708C12.7603 16.2708 14.2087 14.8225 14.2087 13.0625" stroke="#080210" stroke-width="1.5" stroke-miterlimit="10" stroke-linecap="round" stroke-linejoin="round"/>
<path d="M8.07615 1.83301L4.75781 5.16051" stroke="#080210" stroke-width="1.5" stroke-miterlimit="10" stroke-linecap="round" stroke-linejoin="round"/>
<path d="M13.9238 1.83301L17.2422 5.16051" stroke="#080210" stroke-width="1.5" stroke-miterlimit="10" stroke-linecap="round" stroke-linejoin="round"/>
<path d="M1.83301 7.19564C1.83301 5.4998 2.74051 5.3623 3.86801 5.3623H18.1313C19.2588 5.3623 20.1663 5.4998 20.1663 7.19564C20.1663 9.16647 19.2588 9.02897 18.1313 9.02897H3.86801C2.74051 9.02897 1.83301 9.16647 1.83301 7.19564Z" stroke="#080210" stroke-width="1.5"/>
<path d="M3.20801 9.16699L4.50051 17.087C4.79384 18.8653 5.49967 20.167 8.12134 20.167H13.6488C16.4997 20.167 16.9213 18.9203 17.2513 17.197L18.7913 9.16699" stroke="#080210" stroke-width="1.5" stroke-linecap="round"/>
</svg>
