<svg width="20" height="20" viewBox="0 0 20 20" fill="none" xmlns="http://www.w3.org/2000/svg">
<g clip-path="url(#clip0_506_1600)">
<path d="M2.5 10.8334H17.5V17.5017C17.5 17.9609 17.1292 18.3334 16.6725 18.3334H3.3275C3.21855 18.3332 3.1107 18.3115 3.01013 18.2696C2.90956 18.2277 2.81824 18.1663 2.74139 18.0891C2.66454 18.0118 2.60366 17.9202 2.56224 17.8194C2.52082 17.7187 2.49968 17.6107 2.5 17.5017V10.8334ZM2.5 2.49841C2.5 2.03925 2.87084 1.66675 3.3275 1.66675H16.6725C17.1292 1.66675 17.5 2.03841 17.5 2.49841V9.16675H2.5V2.49841ZM7.5 4.16675V5.83342H12.5V4.16675H7.5ZM7.5 13.3334V15.0001H12.5V13.3334H7.5Z" fill="#A0A09C"/>
</g>
<defs>
<clipPath id="clip0_506_1600">
<rect width="20" height="20" fill="white"/>
</clipPath>
</defs>
</svg>
