<svg width="24" height="24" viewBox="0 0 24 24" fill="none" xmlns="http://www.w3.org/2000/svg">
<path fill-rule="evenodd" clip-rule="evenodd" d="M13.2606 0.523464C12.526 -0.0729252 11.474 -0.0729256 10.7394 0.523463L8.58735 2.27062C8.28585 2.5154 7.9196 2.66711 7.53332 2.70722L4.77618 2.9935C3.83504 3.09122 3.09116 3.8351 2.99344 4.77625L2.70715 7.53338C2.66704 7.91966 2.51534 8.28591 2.27056 8.58742L0.523403 10.7394C-0.0729864 11.474 -0.0729865 12.526 0.523403 13.2606L2.27056 15.4126C2.51534 15.7141 2.66704 16.0804 2.70715 16.4667L2.99344 19.2238C3.09116 20.165 3.83504 20.9088 4.77618 21.0066L7.53332 21.2928C7.9196 21.333 8.28585 21.4847 8.58735 21.7294L10.7394 23.4766C11.474 24.073 12.526 24.073 13.2606 23.4766L15.4126 21.7294C15.7141 21.4847 16.0803 21.333 16.4666 21.2928L19.2238 21.0066C20.1649 20.9088 20.9088 20.165 21.0065 19.2238L21.2928 16.4667C21.3329 16.0804 21.4846 15.7141 21.7294 15.4126L23.4765 13.2606C24.0729 12.526 24.0729 11.474 23.4765 10.7394L21.7294 8.58742C21.4846 8.28591 21.3329 7.91966 21.2928 7.53338L21.0065 4.77625C20.9088 3.8351 20.1649 3.09122 19.2237 2.9935L16.4666 2.70722C16.0803 2.66711 15.7141 2.5154 15.4126 2.27062L13.2606 0.523464ZM8.86868 16.3687L16.3687 8.86875C16.7104 8.52704 16.7104 7.97302 16.3687 7.63131C16.027 7.2896 15.473 7.2896 15.1312 7.63131L7.63125 15.1313C7.28954 15.473 7.28954 16.027 7.63125 16.3687C7.97296 16.7105 8.52698 16.7105 8.86868 16.3687ZM14.7387 15.75C14.7387 15.1977 15.1864 14.75 15.7387 14.75H15.7612C16.3135 14.75 16.7612 15.1977 16.7612 15.75C16.7612 16.3023 16.3135 16.75 15.7612 16.75H15.7387C15.1864 16.75 14.7387 16.3023 14.7387 15.75ZM8.23872 7.25003C7.68643 7.25003 7.23872 7.69774 7.23872 8.25003C7.23872 8.80231 7.68643 9.25003 8.23872 9.25003H8.26122C8.8135 9.25003 9.26122 8.80231 9.26122 8.25003C9.26122 7.69774 8.8135 7.25003 8.26122 7.25003H8.23872Z" fill="#FF2640"/>
</svg>
