<svg width="20" height="20" viewBox="0 0 20 20" fill="none" xmlns="http://www.w3.org/2000/svg">
<path fill-rule="evenodd" clip-rule="evenodd" d="M11.0085 0.818771C10.4208 0.34166 9.57922 0.34166 8.99155 0.818771L7.26993 2.21649C7.02873 2.41232 6.73573 2.53368 6.4267 2.56577L4.221 2.7948C3.46808 2.87298 2.87298 3.46808 2.7948 4.221L2.56577 6.4267C2.53368 6.73573 2.41232 7.02873 2.21649 7.26993L0.818771 8.99155C0.34166 9.57922 0.34166 10.4208 0.818771 11.0085L2.21649 12.7301C2.41232 12.9713 2.53368 13.2643 2.56577 13.5733L2.7948 15.779C2.87298 16.532 3.46808 17.1271 4.221 17.2052L6.4267 17.4343C6.73573 17.4664 7.02873 17.5877 7.26993 17.7836L8.99155 19.1813C9.57922 19.6584 10.4208 19.6584 11.0085 19.1813L12.7301 17.7836C12.9713 17.5877 13.2643 17.4664 13.5733 17.4343L15.779 17.2052C16.532 17.1271 17.1271 16.532 17.2052 15.779L17.4343 13.5733C17.4664 13.2643 17.5877 12.9713 17.7836 12.7301L19.1813 11.0085C19.6584 10.4208 19.6584 9.57922 19.1813 8.99155L17.7836 7.26993C17.5877 7.02873 17.4664 6.73573 17.4343 6.4267L17.2052 4.221C17.1271 3.46808 16.532 2.87298 15.779 2.7948L13.5733 2.56577C13.2643 2.53368 12.9713 2.41232 12.7301 2.21649L11.0085 0.818771ZM13.5797 7.39245C13.7964 7.07231 13.7126 6.63709 13.3924 6.42036C13.0723 6.20363 12.6371 6.28746 12.4204 6.6076L13 7.00002L12.4203 6.60764L12.4202 6.60781L12.4197 6.60852L12.4178 6.61143L12.4099 6.62306L12.3789 6.6687L12.2608 6.8425C12.1588 6.99236 12.0127 7.20657 11.8365 7.46366C11.484 7.97805 11.0115 8.66321 10.5308 9.34778C10.0492 10.0337 9.5632 10.7136 9.18235 11.2198C9.08766 11.3456 9.00119 11.4584 8.92418 11.5565C8.76729 11.4026 8.5883 11.216 8.40868 11.0231C8.18136 10.7789 7.96149 10.5336 7.79789 10.3487C7.71626 10.2564 7.64901 10.1796 7.60231 10.126L7.54852 10.0641L7.53467 10.0481L7.53126 10.0442L7.53047 10.0433L7.53031 10.0431L7.5303 10.0431L7.5303 10.0431L7.53029 10.0431C7.27792 9.75021 6.83593 9.71738 6.54307 9.96974C6.25021 10.2221 6.21738 10.6641 6.46974 10.957L7.00002 10.5L6.4698 10.957L6.46989 10.9571L6.4702 10.9575L6.47128 10.9588L6.47528 10.9634L6.49037 10.9808L6.54692 11.0459C6.59555 11.1017 6.66511 11.1811 6.74937 11.2764C6.91756 11.4665 7.14583 11.7212 7.38394 11.977C7.61999 12.2306 7.87437 12.4946 8.09268 12.6988C8.20025 12.7994 8.31246 12.8981 8.41716 12.9759C8.46873 13.0143 8.5336 13.0589 8.60581 13.0969C8.65646 13.1236 8.80541 13.2 9.00002 13.2C9.13994 13.2 9.24653 13.1593 9.29863 13.1362C9.357 13.1104 9.40262 13.0815 9.43206 13.0613C9.49053 13.0212 9.53905 12.9776 9.57229 12.9461C9.64144 12.8805 9.71431 12.7995 9.78387 12.718C9.92629 12.551 10.1047 12.3225 10.301 12.0615C10.6961 11.5364 11.1928 10.8413 11.6766 10.1523C12.1614 9.46184 12.6371 8.772 12.9913 8.25513C13.1685 7.9966 13.3155 7.78112 13.4182 7.6302L13.5373 7.45488L13.5688 7.40854L13.5769 7.39659L13.5789 7.39353L13.5795 7.39274L13.5796 7.39253L13 7.00002L13.5797 7.39245Z" fill="#60CC3B"/>
</svg>
