<svg width="26" height="26" viewBox="0 0 26 26" fill="none" xmlns="http://www.w3.org/2000/svg">
<path d="M13.0013 2.1665C7.0213 2.1665 2.16797 7.01984 2.16797 12.9998C2.16797 18.9798 7.0213 23.8332 13.0013 23.8332C18.9813 23.8332 23.8346 18.9798 23.8346 12.9998C23.8346 7.01984 18.9813 2.1665 13.0013 2.1665ZM13.3588 18.4165C13.1638 18.4815 12.828 18.4815 12.633 18.4165C10.943 17.8423 7.1513 15.4265 7.1513 11.3315C7.1513 9.52234 8.60297 8.05984 10.4013 8.05984C11.463 8.05984 12.4055 8.569 13.0013 9.37067C13.5863 8.57984 14.5396 8.05984 15.6013 8.05984C17.3996 8.05984 18.8513 9.52234 18.8513 11.3315C18.8513 15.4265 15.0596 17.8423 13.3588 18.4165Z" fill="#080210"/>
</svg>
