<svg width="30" height="30" viewBox="0 0 30 30" fill="none" xmlns="http://www.w3.org/2000/svg">
<path d="M26.5643 23.0876L24.5018 23.5751C24.0393 23.6876 23.6768 24.0376 23.5768 24.5001L23.1393 26.3376C22.9018 27.3376 21.6268 27.6501 20.9643 26.8626L17.2268 22.5626C16.9268 22.2126 17.0893 21.6626 17.5393 21.5501C19.7518 21.0126 21.7393 19.7751 23.2018 18.0126C23.4393 17.7251 23.8643 17.6876 24.1268 17.9501L26.9018 20.7251C27.8518 21.6751 27.5143 22.8626 26.5643 23.0876Z" fill="#F19204"/>
<path d="M3.37594 23.0876L5.43844 23.5751C5.90094 23.6876 6.26344 24.0376 6.36344 24.5001L6.80094 26.3376C7.03844 27.3376 8.31344 27.6501 8.97594 26.8626L12.7134 22.5626C13.0134 22.2126 12.8509 21.6626 12.4009 21.5501C10.1884 21.0126 8.20094 19.7751 6.73844 18.0126C6.50094 17.7251 6.07594 17.6876 5.81344 17.9501L3.03844 20.7251C2.08844 21.6751 2.42594 22.8626 3.37594 23.0876Z" fill="#F19204"/>
<path d="M15 2.5C10.1625 2.5 6.25 6.4125 6.25 11.25C6.25 13.0625 6.7875 14.725 7.7125 16.1125C9.0625 18.1125 11.2 19.525 13.6875 19.8875C14.1125 19.9625 14.55 20 15 20C15.45 20 15.8875 19.9625 16.3125 19.8875C18.8 19.525 20.9375 18.1125 22.2875 16.1125C23.2125 14.725 23.75 13.0625 23.75 11.25C23.75 6.4125 19.8375 2.5 15 2.5ZM18.825 10.975L17.7875 12.0125C17.6125 12.1875 17.5125 12.525 17.575 12.775L17.875 14.0625C18.1125 15.075 17.575 15.475 16.675 14.9375L15.425 14.2C15.2 14.0625 14.825 14.0625 14.6 14.2L13.35 14.9375C12.45 15.4625 11.9125 15.075 12.15 14.0625L12.45 12.775C12.5 12.5375 12.4125 12.1875 12.2375 12.0125L11.175 10.975C10.5625 10.3625 10.7625 9.75 11.6125 9.6125L12.95 9.3875C13.175 9.35 13.4375 9.15 13.5375 8.95L14.275 7.475C14.675 6.675 15.325 6.675 15.725 7.475L16.4625 8.95C16.5625 9.15 16.825 9.35 17.0625 9.3875L18.4 9.6125C19.2375 9.75 19.4375 10.3625 18.825 10.975Z" fill="#F19204"/>
</svg>
