<svg width="304" height="200" viewBox="0 0 304 200" fill="none" xmlns="http://www.w3.org/2000/svg">
<g clip-path="url(#clip0_473_13873)">
<path d="M13.4206 184.23C14.7031 184.682 16.0799 184.795 17.4187 184.559C18.7574 184.322 20.0128 183.744 21.064 182.879C23.7411 180.625 24.5806 176.912 25.2634 173.473L27.2834 163.302L23.0543 166.223C20.0128 168.324 16.903 170.492 14.7972 173.535C12.6915 176.578 11.7729 180.733 13.4642 184.025" fill="#E6E6E6"/>
<path d="M14.0751 197.252C13.5428 193.362 12.9952 189.421 13.3694 185.489C13.7011 181.996 14.7632 178.586 16.9254 175.789C18.073 174.307 19.4696 173.037 21.0521 172.037C21.4647 171.776 21.8445 172.432 21.4337 172.692C18.6954 174.428 16.5773 176.992 15.3849 180.013C14.0681 183.373 13.8566 187.036 14.0834 190.606C14.2205 192.764 14.5119 194.909 14.8045 197.05C14.8276 197.147 14.8132 197.249 14.7642 197.336C14.7151 197.422 14.6351 197.487 14.5404 197.517C14.4437 197.543 14.3407 197.53 14.2536 197.48C14.1666 197.431 14.1025 197.349 14.0754 197.252L14.0751 197.252Z" fill="#F2F2F2"/>
<path d="M17.9062 191.01C18.4562 191.849 19.2122 192.531 20.1014 192.992C20.9906 193.453 21.9831 193.676 22.9832 193.64C25.5539 193.517 27.6962 191.718 29.6245 190.009L35.3292 184.956L31.5538 184.775C28.8386 184.644 26.0534 184.522 23.4673 185.363C20.8812 186.204 18.4963 188.225 18.0234 190.91" fill="#E6E6E6"/>
<path d="M12.5693 199.489C15.1319 194.94 18.1041 189.884 23.4155 188.268C24.8921 187.821 26.4405 187.66 27.9772 187.796C28.4616 187.838 28.3407 188.587 27.8573 188.545C25.2813 188.33 22.7103 189.013 20.5771 190.477C18.5243 191.879 16.9259 193.828 15.5732 195.894C14.7446 197.16 14.0023 198.48 13.2601 199.798C13.0229 200.219 12.3293 199.915 12.5693 199.489Z" fill="#F2F2F2"/>
<path d="M191.424 103.453H78.9766V199.539H191.424V103.453Z" fill="white"/>
<path d="M191.75 199.867H78.6484V103.126H191.75V199.867ZM79.3022 199.211H191.096V103.782H79.3022V199.211Z" fill="black"/>
<path d="M149.256 122.146H121.145V199.54H149.256V122.146Z" fill="#BB9B6A"/>
<path d="M149.256 122.146H121.145V199.54H149.256V122.146Z" fill="#BB9B6A"/>
<path opacity="0.2" d="M79.3008 110.504V126.093L191.421 133.296L191.091 114.059L79.3008 110.504Z" fill="black"/>
<path d="M197.96 94.5996H72.4375V122.146H197.96V94.5996Z" fill="white"/>
<path d="M198.286 122.474H72.1094V94.2715H198.286V122.474ZM72.7631 121.818H197.632V94.9274H72.7631V121.818Z" fill="black"/>
<path d="M149.256 91.9756H121.145V121.818H149.256V91.9756Z" fill="#BB9B6A"/>
<path d="M132.189 65.956C139.61 76.9916 132.618 94.7408 132.618 94.7408C132.618 94.7408 113.595 94.5978 106.175 83.5621C98.7541 72.5265 105.746 54.7773 105.746 54.7773C105.746 54.7773 124.769 54.9204 132.189 65.956Z" fill="#BB9B6A"/>
<path d="M135.593 65.956C128.172 76.9916 135.164 94.7408 135.164 94.7408C135.164 94.7408 154.187 94.5978 161.607 83.5621C169.028 72.5265 162.036 54.7773 162.036 54.7773C162.036 54.7773 143.013 54.9204 135.593 65.956Z" fill="#BB9B6A"/>
<path d="M115.586 74.2671C117.211 74.2671 118.528 72.9457 118.528 71.3157C118.528 69.6857 117.211 68.3643 115.586 68.3643C113.962 68.3643 112.645 69.6857 112.645 71.3157C112.645 72.9457 113.962 74.2671 115.586 74.2671Z" fill="white"/>
<path d="M133.239 104.11C134.864 104.11 136.181 102.788 136.181 101.158C136.181 99.5284 134.864 98.207 133.239 98.207C131.614 98.207 130.297 99.5284 130.297 101.158C130.297 102.788 131.614 104.11 133.239 104.11Z" fill="white"/>
<path d="M133.239 168.713C134.864 168.713 136.181 167.392 136.181 165.762C136.181 164.132 134.864 162.811 133.239 162.811C131.614 162.811 130.297 164.132 130.297 165.762C130.297 167.392 131.614 168.713 133.239 168.713Z" fill="white"/>
<path d="M123.43 84.1052C124.513 84.1052 125.391 83.2242 125.391 82.1375C125.391 81.0509 124.513 80.1699 123.43 80.1699C122.347 80.1699 121.469 81.0509 121.469 82.1375C121.469 83.2242 122.347 84.1052 123.43 84.1052Z" fill="white"/>
<path d="M152.852 67.3806C153.935 67.3806 154.813 66.4996 154.813 65.4129C154.813 64.3262 153.935 63.4453 152.852 63.4453C151.769 63.4453 150.891 64.3262 150.891 65.4129C150.891 66.4996 151.769 67.3806 152.852 67.3806Z" fill="white"/>
<path d="M140.102 113.62C141.185 113.62 142.063 112.739 142.063 111.652C142.063 110.566 141.185 109.685 140.102 109.685C139.019 109.685 138.141 110.566 138.141 111.652C138.141 112.739 139.019 113.62 140.102 113.62Z" fill="white"/>
<path d="M128.336 139.199C129.419 139.199 130.298 138.318 130.298 137.231C130.298 136.145 129.419 135.264 128.336 135.264C127.253 135.264 126.375 136.145 126.375 137.231C126.375 138.318 127.253 139.199 128.336 139.199Z" fill="white"/>
<path d="M138.469 148.053C139.552 148.053 140.43 147.172 140.43 146.086C140.43 144.999 139.552 144.118 138.469 144.118C137.386 144.118 136.508 144.999 136.508 146.086C136.508 147.172 137.386 148.053 138.469 148.053Z" fill="white"/>
<path d="M136.18 185.11C137.263 185.11 138.141 184.229 138.141 183.142C138.141 182.056 137.263 181.175 136.18 181.175C135.097 181.175 134.219 182.056 134.219 183.142C134.219 184.229 135.097 185.11 136.18 185.11Z" fill="white"/>
<path d="M257.137 195.917L253.55 195.916L251.844 182.036L257.138 182.036L257.137 195.917Z" fill="#FFB7B7"/>
<path d="M258.05 199.405L246.484 199.404V199.257C246.484 198.06 246.959 196.911 247.803 196.064C248.647 195.217 249.792 194.741 250.986 194.741L258.051 194.741L258.05 199.405Z" fill="#080210"/>
<path d="M265.899 195.917L269.486 195.916L271.193 182.036L265.898 182.036L265.899 195.917Z" fill="#FFB7B7"/>
<path d="M264.984 194.741L272.048 194.741C273.242 194.741 274.388 195.217 275.232 196.064C276.076 196.911 276.55 198.06 276.551 199.257V199.404L264.985 199.405L264.984 194.741Z" fill="#080210"/>
<path d="M256.339 87.4469C257.88 84.336 256.615 80.5611 253.514 79.0155C250.413 77.4698 246.651 78.7387 245.11 81.8496C243.569 84.9605 244.834 88.7354 247.935 90.281C251.036 91.8267 254.799 90.5578 256.339 87.4469Z" fill="#FFB7B7"/>
<path d="M246.107 127.917C246.107 127.917 244.127 136.193 245.117 140.165C246.107 144.138 249.077 171.283 249.077 171.283L251.057 192.8L258.976 193.462L257.986 168.304L258.976 146.455L264.585 167.641V192.875L272.984 193.206L273.165 160.359C273.165 160.359 273.825 134.538 269.535 131.227C265.245 127.917 264.585 127.255 264.585 127.255L246.107 127.917Z" fill="#080210"/>
<path d="M258.064 91.5029L265.577 95.4754L266.567 129.903C266.567 129.903 262.278 127.255 255.678 130.565C249.079 133.876 244.789 131.558 244.789 131.558L248.749 116.662L247.099 96.7995L249.459 94.6508L258.064 91.5029Z" fill="#CBCBCB"/>
<path d="M249.46 94.025L248.089 95.1452C248.089 95.1452 239.51 99.4486 239.18 102.428L245.119 118.649C245.119 118.649 246.769 122.29 245.449 123.614C244.129 124.939 242.809 128.249 243.139 129.904C243.469 131.559 241.16 138.511 243.799 138.511C246.439 138.511 252.709 122.621 252.379 116.332C252.049 110.042 251.82 93.5669 249.46 94.025Z" fill="#080210"/>
<path d="M255.228 91.8766L258.25 91.3721C258.25 91.3721 269.47 94.3514 271.119 99.317L266.5 110.903C266.5 110.903 269.799 132.09 268.81 132.09H267.82C267.82 132.09 270.459 134.076 268.81 134.738C267.16 135.4 263.2 140.697 262.21 138.379C261.22 136.062 255.281 108.586 255.941 102.627C256.601 96.6686 254.642 92.5009 255.228 91.8766Z" fill="#080210"/>
<path d="M256.539 78.4901L256.833 77.8972L255.355 77.1607C255.355 77.1607 253.725 74.5 250.776 75.2477C247.826 75.9954 246.499 76.4429 246.499 76.4429L245.025 77.1869L245.765 77.9252L244.438 78.3728L245.324 78.8146L244.293 79.4094L244.848 82.4585C244.848 82.4585 245.771 80.1459 247.544 81.0297C249.317 81.9134 252.56 80.5728 252.56 80.5728L255.377 86.0433C255.377 86.0433 255.959 84.1256 256.995 84.637C256.995 84.637 259.643 80.4068 256.539 78.4901Z" fill="#080210"/>
<path d="M265.716 136.578C265.553 136.178 265.479 135.748 265.499 135.317C265.52 134.886 265.635 134.465 265.835 134.083C266.036 133.701 266.317 133.368 266.66 133.107C267.003 132.847 267.398 132.664 267.819 132.574L269.089 122.162L273.227 125.693L271.387 135.039C271.492 135.758 271.331 136.49 270.934 137.098C270.537 137.705 269.932 138.146 269.232 138.335C268.533 138.525 267.789 138.451 267.141 138.127C266.493 137.803 265.986 137.252 265.716 136.578Z" fill="#FFB7B7"/>
<path d="M248.014 135.861C248.134 135.447 248.162 135.011 248.096 134.585C248.03 134.158 247.871 133.752 247.632 133.393C247.392 133.035 247.077 132.734 246.709 132.511C246.34 132.288 245.928 132.149 245.5 132.103L243.137 121.886L239.395 125.837L242.213 134.934C242.184 135.66 242.421 136.372 242.88 136.934C243.339 137.495 243.988 137.869 244.703 137.983C245.418 138.097 246.15 137.945 246.761 137.553C247.371 137.162 247.817 136.56 248.014 135.861Z" fill="#FFB7B7"/>
<path d="M265.875 96.6193C265.875 96.6193 270.164 94.9641 271.484 99.9297C272.804 104.895 274.454 114.826 274.454 114.826C274.536 120.349 274.244 120.349 274.454 125.751L273.464 130.716L267.855 130.054L268.099 117.413L265.215 104.564L265.875 96.6193Z" fill="#080210"/>
<path d="M242.149 100.441L240.115 100.66C240.115 100.66 238.189 102.097 238.189 105.407C238.189 108.717 237.859 118.648 237.859 118.648C237.859 118.648 237.672 118.881 239.179 127.255C239.913 131.337 241.183 133.264 241.183 133.264L245.279 129.448L244.788 119.642L246.108 114.345L242.149 100.441Z" fill="#080210"/>
<path d="M303.673 199.867H0.326882C0.240187 199.867 0.157043 199.832 0.0957412 199.771C0.034439 199.709 0 199.626 0 199.539C0 199.452 0.034439 199.368 0.0957412 199.307C0.157043 199.245 0.240187 199.211 0.326882 199.211H303.673C303.76 199.211 303.843 199.245 303.904 199.307C303.966 199.368 304 199.452 304 199.539C304 199.626 303.966 199.709 303.904 199.771C303.843 199.832 303.76 199.867 303.673 199.867Z" fill="black"/>
<path d="M75.3958 102.393C79.3725 102.393 82.5963 99.1586 82.5963 95.169C82.5963 91.1795 79.3725 87.9453 75.3958 87.9453C71.4191 87.9453 68.1953 91.1795 68.1953 95.169C68.1953 99.1586 71.4191 102.393 75.3958 102.393Z" fill="#FFB8B8"/>
<path d="M72.7945 137.913C72.7038 137.913 72.6127 137.909 72.5212 137.901C72.0684 137.863 71.6286 137.729 71.2308 137.509C70.8329 137.289 70.486 136.987 70.2126 136.622C69.9393 136.258 69.7458 135.84 69.6447 135.396C69.5437 134.951 69.5374 134.49 69.6262 134.043C69.6472 133.939 69.6737 133.837 69.7054 133.736L59.0781 121.126C58.7318 120.712 58.5278 120.197 58.4964 119.657C58.4651 119.118 58.6079 118.582 58.9038 118.131L58.9231 118.107L68.4889 108.644C69.0112 108.128 69.7165 107.841 70.4499 107.846C71.1832 107.851 71.8845 108.148 72.3994 108.672C72.9143 109.196 73.2006 109.904 73.1955 110.639C73.1903 111.375 72.894 112.079 72.3718 112.595C72.3598 112.607 72.3477 112.619 72.3355 112.63L65.4072 119.238L72.9919 131.451C73.1356 131.458 73.2785 131.476 73.4197 131.504C74.2043 131.661 74.9027 132.105 75.3792 132.749C75.8558 133.394 76.0766 134.193 75.9987 134.992C75.9207 135.791 75.5497 136.532 74.9576 137.072C74.3655 137.612 73.5945 137.911 72.7945 137.913Z" fill="#FFB8B8"/>
<path d="M87.2546 195.705H90.849L92.5585 181.797L87.2539 181.797L87.2546 195.705Z" fill="#FFB8B8"/>
<path d="M86.3359 194.528L93.4141 194.527C94.6104 194.527 95.758 195.004 96.6039 195.853C97.4499 196.701 97.9251 197.852 97.9252 199.052V199.2L86.3361 199.2L86.3359 194.528Z" fill="#080210"/>
<path d="M51.5312 190.72L54.6196 192.565L63.1813 181.492L58.6236 178.77L51.5312 190.72Z" fill="#FFB8B8"/>
<path d="M51.3436 189.237L57.4254 192.87C58.4533 193.484 59.1962 194.483 59.4903 195.646C59.7843 196.809 59.6057 198.042 58.9937 199.074L58.9186 199.2L48.9609 193.252L51.3436 189.237Z" fill="#080210"/>
<path d="M91.6943 190.792H87.6697C87.3438 190.793 87.0293 190.672 86.787 190.453C86.5447 190.235 86.3918 189.934 86.3579 189.609L82.3004 151.346C82.2902 151.249 82.2486 151.159 82.1822 151.089C82.1157 151.018 82.0281 150.972 81.9328 150.957C81.8375 150.941 81.7397 150.958 81.6547 151.004C81.5697 151.05 81.5021 151.122 81.4623 151.211L74.1426 167.471L61.1834 188.671C61.0157 188.942 60.756 189.144 60.4519 189.24C60.1478 189.335 59.8196 189.317 59.5275 189.19L54.3504 186.905C54.1792 186.829 54.026 186.718 53.9009 186.578C53.7759 186.439 53.6818 186.274 53.6249 186.096C53.5681 185.917 53.5498 185.728 53.5712 185.542C53.5926 185.355 53.6533 185.175 53.7492 185.014L65.6622 165.003L69.3158 148.142C68.1667 140.83 73.0929 129.959 73.1429 129.85L73.1673 129.796L86.7368 124.476L86.8048 124.559C92.1562 142.177 95.4171 161.137 93.0094 189.58C92.9797 189.91 92.8285 190.217 92.5854 190.441C92.3423 190.665 92.0246 190.79 91.6943 190.792Z" fill="#080210"/>
<path d="M72.6225 131.579L72.5593 131.445C72.5291 131.382 69.5119 124.997 67.1859 118.174C66.7389 116.854 66.5699 115.456 66.6897 114.068C66.8094 112.679 67.2153 111.331 67.8816 110.108C68.5565 108.872 69.4799 107.791 70.5931 106.932C71.7064 106.073 72.9854 105.456 74.349 105.118C76.7162 104.549 79.2085 104.852 81.3718 105.972C83.5351 107.092 85.2255 108.954 86.1348 111.219C87.9798 115.848 87.3918 120.788 86.8384 124.673L86.8274 124.751L86.7569 124.785L72.6225 131.579Z" fill="#BB9B6A"/>
<path d="M84.1249 91.088H72.6914V86.0881C75.2009 85.0878 77.6566 84.2372 79.1411 86.0881C80.4629 86.0881 81.7305 86.6148 82.6652 87.5525C83.5998 88.4902 84.1249 89.7619 84.1249 91.088Z" fill="#080210"/>
<path d="M72.0569 85.2061C65.2218 85.2061 63.3086 93.8013 63.3086 98.6503C63.3086 101.355 64.5276 102.322 66.4432 102.649L67.1198 99.0294L68.7042 102.805C69.2423 102.808 69.8076 102.797 70.3937 102.786L70.9309 101.676L72.1289 102.766C76.9271 102.773 80.8051 103.475 80.8051 98.6503C80.8051 93.8013 79.1273 85.2061 72.0569 85.2061Z" fill="#080210"/>
<path d="M102.441 94.8256C102.485 94.9054 102.525 94.9875 102.562 95.0719C102.746 95.4888 102.84 95.94 102.838 96.3959C102.836 96.8518 102.738 97.3021 102.55 97.7174C102.363 98.1326 102.09 98.5035 101.749 98.8055C101.409 99.1076 101.009 99.3341 100.575 99.4702C100.474 99.5015 100.372 99.5275 100.268 99.548L94.3331 114.95C94.1369 115.453 93.7841 115.88 93.3272 116.166C92.8702 116.452 92.3334 116.583 91.7964 116.539L91.7666 116.534L78.9028 112.649C78.2012 112.436 77.6125 111.953 77.266 111.305C76.9195 110.657 76.8436 109.897 77.0549 109.193C77.2663 108.489 77.7475 107.898 78.393 107.55C79.0385 107.202 79.7954 107.125 80.4974 107.336C80.5135 107.341 80.5295 107.346 80.5454 107.351L89.6472 110.283L96.6938 97.75C96.6315 97.6199 96.5785 97.4855 96.535 97.348C96.2963 96.582 96.3498 95.7543 96.6853 95.0256C97.0207 94.297 97.6141 93.7194 98.3502 93.405C99.0862 93.0907 99.9125 93.062 100.669 93.3245C101.425 93.587 102.056 94.122 102.441 94.8256Z" fill="#FFB8B8"/>
<path d="M216.796 55.7057C211.987 49.2496 203.185 47.6915 198.812 50.9702C194.438 54.2489 193.434 63.1582 198.242 69.6143C202.694 75.5903 210.758 77.2201 215.2 74.9812C215.186 75.0511 215.185 75.1231 215.197 75.1934L215.448 76.4354C215.467 76.5301 215.51 76.6183 215.572 76.6917C215.635 76.765 215.715 76.8211 215.806 76.8546C215.896 76.8881 215.993 76.8979 216.088 76.883C216.183 76.8681 216.273 76.8291 216.349 76.7696L218.47 75.1076C218.546 75.0481 218.605 74.9702 218.643 74.8811C218.68 74.7921 218.694 74.695 218.684 74.599C218.673 74.503 218.638 74.4112 218.582 74.3325C218.527 74.2538 218.452 74.1907 218.365 74.1492L217.224 73.6049C217.184 73.5868 217.142 73.5735 217.098 73.5653C220.522 69.934 221.256 61.6947 216.796 55.7057Z" fill="#CCCCCC"/>
<path d="M206.275 53.2682C208.628 53.643 210.747 54.9096 212.195 56.8065C213.643 58.7034 214.311 61.0858 214.059 63.4619C214.007 64.0062 214.855 64.0027 214.906 63.4619C215.149 60.9009 214.417 58.3425 212.858 56.2999C211.299 54.2573 209.028 52.8815 206.5 52.4484C205.967 52.3575 205.738 53.1765 206.275 53.2682Z" fill="white"/>
<path d="M56.288 63.8034C60.4923 56.9357 58.6849 48.1548 54.0325 45.2883C49.38 42.4218 40.7562 44.7758 36.552 51.6435C32.6605 58.0005 34.1293 66.1209 37.8438 69.4351C37.7737 69.4475 37.7067 69.4733 37.6463 69.511L36.5883 70.2032C36.5076 70.256 36.4417 70.3286 36.3969 70.414C36.3521 70.4995 36.3298 70.5951 36.3321 70.6917C36.3344 70.7882 36.3614 70.8826 36.4103 70.9658C36.4592 71.049 36.5285 71.1183 36.6116 71.1671L38.9344 72.5303C39.0175 72.579 39.1117 72.6057 39.208 72.6077C39.3043 72.6097 39.3994 72.587 39.4845 72.5417C39.5696 72.4964 39.6417 72.4301 39.694 72.349C39.7463 72.2679 39.7771 72.1747 39.7834 72.0783L39.8662 70.8138C39.8682 70.7697 39.8649 70.7255 39.8565 70.6822C44.4848 72.5329 52.388 70.1742 56.288 63.8034Z" fill="#CCCCCC"/>
<path d="M54.6602 53.0964C55.1818 55.4279 54.7912 57.8713 53.5691 59.9222C52.347 61.9732 50.3866 63.4752 48.0926 64.1181C47.5693 64.2709 47.8857 65.0599 48.4055 64.9081C50.8674 64.1882 52.967 62.5613 54.2833 60.3534C55.5996 58.1456 56.0352 55.5201 55.5027 53.0036C55.39 52.4727 54.5467 52.5615 54.6602 53.0964Z" fill="white"/>
<path d="M266.494 14.0774C266.142 6.02553 259.742 -0.233035 254.288 0.0066609C248.833 0.246356 243.003 7.04234 243.355 15.0942C243.68 22.5471 249.431 28.4487 254.358 29.107C254.307 29.1567 254.266 29.2157 254.237 29.2809L253.747 30.4489C253.71 30.5379 253.696 30.635 253.706 30.731C253.717 30.8271 253.752 30.9188 253.808 30.9974C253.864 31.0761 253.939 31.1392 254.026 31.1806C254.113 31.2221 254.209 31.2405 254.305 31.2342L256.99 31.0582C257.086 31.0519 257.179 31.0211 257.26 30.9687C257.341 30.9162 257.407 30.8439 257.452 30.7586C257.497 30.6733 257.52 30.5778 257.518 30.4812C257.516 30.3847 257.49 30.2902 257.441 30.2068L256.804 29.1127C256.781 29.0751 256.753 29.0403 256.722 29.0091C261.59 27.9416 266.82 21.5465 266.494 14.0774Z" fill="#BB9B6A"/>
<path d="M259.169 6.12207C260.902 7.76043 261.943 10.0041 262.076 12.3899C262.208 14.7757 261.423 17.1215 259.882 18.9432C259.533 19.3638 260.236 19.8396 260.582 19.4217C262.219 17.442 263.05 14.9144 262.908 12.3457C262.766 9.77707 261.661 7.35735 259.815 5.5718C259.425 5.19539 258.776 5.74286 259.169 6.12207Z" fill="white"/>
<path d="M216.322 37.3222C214.22 37.1894 212.178 36.5585 210.366 35.4814C208.553 34.4043 207.021 32.9116 205.895 31.1256C205.579 30.6193 205.167 30.0629 205.385 29.4398C205.461 29.2008 205.616 28.9948 205.824 28.8555C206.032 28.7162 206.281 28.6517 206.53 28.6727C207.174 28.7514 207.59 29.3837 207.67 29.9897C207.76 30.677 207.276 31.2166 206.68 31.4719C205.221 32.096 203.75 31.1316 202.562 30.3619C199.856 28.6082 196.879 27.0222 193.599 26.8223C190.565 26.6374 187.311 27.831 185.623 30.4708C185.328 30.9326 186.061 31.3594 186.355 30.8999C188.029 28.2818 191.413 27.3415 194.355 27.7462C196.108 28.0237 197.801 28.6004 199.36 29.4511C200.169 29.8721 200.953 30.3388 201.722 30.8295C202.453 31.3414 203.228 31.7871 204.038 32.1615C205.389 32.7181 207.176 32.6746 208.12 31.3932C209 30.1977 208.32 28.2074 206.848 27.8713C206.525 27.8075 206.191 27.825 205.877 27.9223C205.562 28.0197 205.277 28.1938 205.046 28.429C204.815 28.6643 204.646 28.9534 204.554 29.2704C204.461 29.5874 204.449 29.9223 204.518 30.2453C204.665 30.9492 205.193 31.6382 205.602 32.2136C206.831 33.9479 208.432 35.3836 210.287 36.4149C212.143 37.4461 214.205 38.0467 216.322 38.1723C216.867 38.1994 216.866 37.3492 216.322 37.3222Z" fill="#CCCCCC"/>
</g>
<defs>
<clipPath id="clip0_473_13873">
<rect width="304" height="200" fill="white"/>
</clipPath>
</defs>
</svg>
