<svg width="217" height="200" viewBox="0 0 217 200" fill="none" xmlns="http://www.w3.org/2000/svg">
<g clip-path="url(#clip0_473_14027)">
<path d="M197.17 160.232L179.602 134.137C179.602 134.137 206.207 143.425 203.188 160.232H197.17Z" fill="#E5E5E5"/>
<path d="M15.0615 160.405L14.3945 160.392C14.6525 152.977 15.4437 145.59 16.762 138.288C19.646 122.654 24.4415 112.387 31.0155 107.771L31.3984 108.317C16.0417 119.1 15.0693 159.993 15.0615 160.405Z" fill="#E5E5E5"/>
<path d="M23.3974 160.245L22.7305 160.232C22.7448 159.493 23.1616 142.087 30.0143 137.275L30.3973 137.821C23.8211 142.438 23.4007 160.067 23.3974 160.245Z" fill="#E5E5E5"/>
<path d="M35.1901 108.377C37.0318 108.377 38.5248 106.884 38.5248 105.043C38.5248 103.201 37.0318 101.708 35.1901 101.708C33.3485 101.708 31.8555 103.201 31.8555 105.043C31.8555 106.884 33.3485 108.377 35.1901 108.377Z" fill="#BB9B6A"/>
<path d="M33.5417 137.056C35.3834 137.056 36.8764 135.563 36.8764 133.721C36.8764 131.88 35.3834 130.387 33.5417 130.387C31.7 130.387 30.207 131.88 30.207 133.721C30.207 135.563 31.7 137.056 33.5417 137.056Z" fill="#BB9B6A"/>
<path d="M21.8441 110.377C22.4708 114.38 20.8374 117.96 20.8374 117.96C20.8374 117.96 18.1879 115.05 17.5612 111.047C16.9345 107.044 18.5679 103.464 18.5679 103.464C18.5679 103.464 21.2174 106.374 21.8441 110.377Z" fill="#E5E5E5"/>
<path d="M32.7442 120.098C28.9117 121.413 25.1016 120.428 25.1016 120.428C25.1016 120.428 27.5052 117.312 31.3377 115.998C35.1702 114.683 38.9804 115.668 38.9804 115.668C38.9804 115.668 36.5767 118.783 32.7442 120.098Z" fill="#E5E5E5"/>
<path d="M32.8647 145.495C31.1301 146.04 29.2829 146.12 27.5078 145.727C28.6349 144.292 30.1529 143.213 31.8788 142.621C33.6048 142.029 35.4652 141.949 37.2357 142.39C36.0758 143.79 34.5685 144.861 32.8647 145.495Z" fill="#E5E5E5"/>
<path d="M216.087 160.898H0.333467C0.245026 160.898 0.160212 160.863 0.0976751 160.801C0.0351379 160.738 0 160.653 0 160.565C0 160.476 0.0351379 160.392 0.0976751 160.329C0.160212 160.267 0.245026 160.231 0.333467 160.231H216.087C216.175 160.231 216.26 160.267 216.323 160.329C216.385 160.392 216.42 160.476 216.42 160.565C216.42 160.653 216.385 160.738 216.323 160.801C216.26 160.863 216.175 160.898 216.087 160.898Z" fill="#CBCBCB"/>
<path d="M136.653 176.271L133.924 183.372L105.238 176.228L109.265 165.748L136.653 176.271Z" fill="#FFB7B7"/>
<path d="M144.232 177.105L135.436 200L135.146 199.889C132.783 198.981 130.877 197.171 129.848 194.858C128.819 192.544 128.75 189.917 129.658 187.554L129.658 187.553L135.031 173.569L144.232 177.105Z" fill="#080210"/>
<path d="M93.0627 87.3652L80.5616 88.5357L79.9414 125.731C80.1071 127.554 80.9801 129.24 82.3734 130.427C83.7666 131.614 85.5694 132.208 87.3955 132.083L95.3214 131.537L93.0627 87.3652Z" fill="#E5E5E5"/>
<path d="M137.135 85.5349L128.581 85.4248L128.074 129.621C129.964 129.684 131.847 129.357 133.605 128.66C135.364 127.963 136.959 126.912 138.293 125.571C139.627 124.23 140.67 122.629 141.357 120.867C142.045 119.105 142.362 117.22 142.289 115.331L137.135 85.5349Z" fill="#E5E5E5"/>
<path d="M87.503 145.322C87.3004 146.604 87.0063 147.869 86.6231 149.109C86.1914 150.323 85.5251 151.446 85.1304 152.672C83.8724 156.581 85.6164 160.939 88.4017 163.956C90.8171 166.561 93.9349 168.413 97.379 169.286C99.8918 169.918 102.504 170.009 105.094 170.097C112.264 170.34 119.619 170.558 126.414 168.253C128.56 167.507 130.634 166.565 132.608 165.439C133.231 165.143 133.78 164.71 134.215 164.174C134.733 163.436 134.799 162.479 134.795 161.578C134.78 158.538 134.163 155.514 134.31 152.478C134.391 150.796 134.706 149.115 134.551 147.439C134.336 145.535 133.539 143.743 132.267 142.31C130.995 140.877 129.311 139.871 127.446 139.432C125.519 139.018 123.52 139.243 121.558 139.432C116.464 139.921 111.349 140.15 106.232 140.117C101.003 140.084 95.8073 139.286 90.605 139.202C89.0666 139.178 89.0977 139.652 88.6079 141.141C88.1567 142.511 87.7878 143.907 87.503 145.322Z" fill="#080210"/>
<path d="M67.0563 142.851C65.6504 142.498 64.2018 142.344 62.753 142.394C61.2308 142.478 59.744 142.885 58.3913 143.589C57.0387 144.292 55.8513 145.275 54.908 146.473C53.9648 147.67 53.2873 149.055 52.9207 150.535C52.554 152.015 52.5066 153.556 52.7816 155.055C53.1327 156.68 53.7065 158.248 54.4868 159.715C55.6281 162.031 56.9968 164.342 59.1096 165.826C60.3455 166.694 61.7759 167.235 63.1893 167.768L74.3166 171.96C75.9536 172.576 77.5908 173.193 79.244 173.765C87.5493 176.636 96.2082 178.357 104.98 178.881C107.652 179.04 110.364 179.085 112.971 178.476C113.589 178.332 114.249 178.117 114.607 177.592C114.819 177.223 114.944 176.81 114.973 176.384L115.658 171.591C115.754 170.916 115.847 170.206 115.6 169.57C115.286 168.765 114.5 168.258 113.75 167.827C106.434 163.626 97.8928 161.308 91.7353 155.541C90.2857 154.183 89.0726 152.032 87.3114 151.109C85.3142 150.064 82.9621 149.467 80.8977 148.503C76.3847 146.397 71.9475 143.976 67.0563 142.851Z" fill="#080210"/>
<path opacity="0.1" d="M78.1663 149.313C82.0993 150.546 98.7047 159.084 101.551 162.065C101.169 162.203 88.2252 154.949 87.8368 154.832C84.3062 153.772 80.756 152.706 77.4031 151.155C76.7287 150.843 73.0212 149.377 73.1891 148.526C73.3786 147.565 77.4681 149.095 78.1663 149.313Z" fill="black"/>
<path d="M101.903 74.8635L91.3136 82.9039C91.3136 82.9039 80.1396 83.2535 80.5172 90.3964C80.8947 97.5394 85.3669 131.359 85.3669 131.359L86.3372 142.995L104.742 148.24C114.687 151.073 125.193 151.298 135.25 148.893L133.063 137.219C133.063 137.219 141.919 84.2007 136.584 81.8664C131.248 79.5321 127.914 80.1991 127.914 80.1991L121.226 74.3633L101.903 74.8635Z" fill="#E5E5E5"/>
<path d="M133.247 61.8763C133.247 72.3142 123.596 70.7355 111.69 70.7355C99.7843 70.7355 90.1328 72.3142 90.1328 61.8763C90.1328 51.4385 94.8473 32.9365 111.69 32.9365C129.113 32.9365 133.247 51.4385 133.247 61.8763Z" fill="#080210"/>
<path d="M122.897 65.4135C128.562 59.7486 128.562 50.5639 122.897 44.899C117.232 39.2341 108.047 39.2341 102.382 44.899C96.7173 50.5639 96.7173 59.7486 102.382 65.4135C108.047 71.0784 117.232 71.0784 122.897 65.4135Z" fill="#FFB7B7"/>
<path d="M94.8594 54.7894H100.597L103.128 47.7021L103.634 54.7894H106.376L107.853 50.6551L108.148 54.7894H128.524C128.524 50.7168 126.906 46.811 124.026 43.9312C121.147 41.0514 117.241 39.4336 113.168 39.4336H110.215C106.143 39.4336 102.237 41.0514 99.357 43.9312C96.4772 46.811 94.8594 50.7168 94.8594 54.7894Z" fill="#080210"/>
<path d="M126.246 76.5312H97.2344V111.545H126.246V76.5312Z" fill="#BB9B6A"/>
<path d="M98.832 175.938L101.56 183.039L130.247 175.895L126.22 165.415L98.832 175.938Z" fill="#FFB7B7"/>
<path d="M100.455 173.236L105.828 187.22L105.828 187.221C106.736 189.584 106.668 192.211 105.639 194.525C104.609 196.838 102.704 198.648 100.34 199.556L100.051 199.667L91.2539 176.772L100.455 173.236Z" fill="#080210"/>
<path d="M156.174 140.134C158.478 139.556 160.867 139.393 163.229 139.652C165.115 139.859 167.058 140.384 168.435 141.69C170.112 143.279 170.65 145.736 170.695 148.045C170.769 152.644 169.243 157.126 166.379 160.726C165.68 161.636 164.848 162.437 163.912 163.101C162.902 163.733 161.825 164.252 160.702 164.648L135.782 174.477C129.227 177.063 122.648 179.656 115.81 181.361C115.438 181.54 115.01 181.565 114.621 181.429C114.231 181.293 113.911 181.007 113.731 180.636C113.726 180.624 113.721 180.613 113.715 180.601C111.532 177.483 109.7 174.132 108.254 170.611C108.185 170.527 108.138 170.428 108.116 170.322C108.094 170.216 108.097 170.107 108.127 170.003C108.156 169.898 108.21 169.803 108.284 169.724C108.357 169.645 108.449 169.585 108.551 169.549L126.177 159.422C127.439 158.697 128.716 157.961 129.764 156.95C130.526 156.212 131.15 155.344 131.606 154.386C131.972 153.623 132.006 151.822 132.472 151.258C132.929 150.706 134.492 150.662 135.214 150.445C136.232 150.133 137.229 149.756 138.199 149.316C142.142 147.552 145.653 144.99 149.432 142.924C151.552 141.712 153.817 140.775 156.174 140.134Z" fill="#080210"/>
<path opacity="0.1" d="M146.182 147.697C143.153 149.971 139.233 152.062 136.231 154.396C135.207 155.193 118.132 164.792 117.891 166.067C120.691 166.539 138.527 154.061 141.078 152.816C143.63 151.571 145.892 149.815 148.134 148.073C148.705 147.628 151.126 146.293 149.486 145.797C148.563 145.518 146.864 147.242 146.182 147.697Z" fill="black"/>
<path d="M200.608 59.9292C206.363 59.9292 211.028 55.2639 211.028 49.509C211.028 43.7541 206.363 39.0889 200.608 39.0889C194.853 39.0889 190.188 43.7541 190.188 49.509C190.188 55.2639 194.853 59.9292 200.608 59.9292Z" fill="#F1F1F1"/>
<path d="M181.325 61.7951C185.362 61.7951 188.635 58.5225 188.635 54.4854C188.635 50.4484 185.362 47.1758 181.325 47.1758C177.288 47.1758 174.016 50.4484 174.016 54.4854C174.016 58.5225 177.288 61.7951 181.325 61.7951Z" fill="#F1F1F1"/>
<path d="M47.4235 57.0267C50.6605 57.0267 53.2846 54.4027 53.2846 51.1657C53.2846 47.9288 50.6605 45.3047 47.4235 45.3047C44.1866 45.3047 41.5625 47.9288 41.5625 51.1657C41.5625 54.4027 44.1866 57.0267 47.4235 57.0267Z" fill="#F1F1F1"/>
<path d="M57.0724 60.9681C59.3431 60.9681 61.1839 59.1273 61.1839 56.8566C61.1839 54.5859 59.3431 52.7451 57.0724 52.7451C54.8017 52.7451 52.9609 54.5859 52.9609 56.8566C52.9609 59.1273 54.8017 60.9681 57.0724 60.9681Z" fill="#F1F1F1"/>
<path d="M113.929 8.96045C116.404 8.96045 118.41 6.95458 118.41 4.48022C118.41 2.00586 116.404 0 113.929 0C111.455 0 109.449 2.00586 109.449 4.48022C109.449 6.95458 111.455 8.96045 113.929 8.96045Z" fill="#F1F1F1"/>
<path opacity="0.17" d="M87.2305 98.8736L87.6309 95.7822C87.6309 95.7822 102.57 96.8728 100.236 100.541C97.9014 104.209 92.2325 104.543 92.2325 104.543L87.2305 98.8736Z" fill="#080210"/>
<path d="M98.5081 85.4326C99.3639 85.5268 100.188 85.8093 100.922 86.2597C101.655 86.7102 102.28 87.3175 102.751 88.038C103.181 88.6955 103.473 89.433 103.61 90.2062C103.747 90.9794 103.726 91.7723 103.549 92.5374C103.372 93.3024 103.043 94.0238 102.58 94.6581C102.117 95.2925 101.531 95.8268 100.856 96.229C100.609 96.375 100.351 96.5019 100.084 96.6085L90.9018 124.696C90.6357 125.25 90.2627 125.746 89.8043 126.156C89.3458 126.565 88.8109 126.88 88.2303 127.082C87.6498 127.284 87.035 127.37 86.4213 127.334C85.8076 127.297 85.2071 127.14 84.6543 126.871C84.1016 126.602 83.6075 126.226 83.2004 125.766C82.7933 125.305 82.4814 124.768 82.2824 124.187C82.0834 123.605 82.0013 122.99 82.0409 122.376C82.0805 121.763 82.241 121.163 82.5131 120.612L92.2784 92.8365C92.0124 91.9175 91.977 90.9471 92.1754 90.0112C92.3738 89.0753 92.7998 88.2027 93.4157 87.4706C94.0317 86.7386 94.8186 86.1696 95.7068 85.8142C96.5951 85.4587 97.5572 85.3276 98.5081 85.4326Z" fill="#FFB7B7"/>
<path d="M87.3664 96.0459C87.3664 96.0459 92.6279 105.035 100.235 100.541L92.8627 128.752H86.6517L80.2266 127.552L82.0256 115.896L87.3664 96.0459Z" fill="#E5E5E5"/>
<path d="M124.937 102.19L120.578 96.2058C120.578 96.2058 122.673 89.9989 130.796 92.2687C130.796 92.2687 135.965 103.839 124.937 102.19Z" fill="#E5E5E5"/>
<path opacity="0.17" d="M124.937 102.19L120.578 96.2058C120.578 96.2058 122.673 89.9989 130.796 92.2687C130.796 92.2687 135.965 103.839 124.937 102.19Z" fill="#080210"/>
<path d="M126.09 81.2831C127.347 81.8677 128.353 82.8842 128.924 84.1477C129.495 85.4113 129.594 86.8379 129.202 88.1681L138.968 115.943C139.24 116.495 139.4 117.094 139.44 117.708C139.48 118.321 139.397 118.937 139.199 119.518C139 120.1 138.688 120.637 138.28 121.097C137.873 121.558 137.379 121.934 136.826 122.203C136.274 122.472 135.673 122.629 135.059 122.665C134.446 122.702 133.831 122.616 133.25 122.414C132.67 122.212 132.135 121.897 131.676 121.487C131.218 121.078 130.845 120.581 130.579 120.027L121.396 91.9401C121.13 91.8335 120.872 91.7066 120.624 91.5605C119.95 91.1584 119.364 90.6241 118.901 89.9897C118.438 89.3554 118.108 88.634 117.931 87.8689C117.754 87.1039 117.734 86.311 117.871 85.5378C118.008 84.7646 118.3 84.0271 118.729 83.3696C119.2 82.6491 119.825 82.0418 120.559 81.5913C121.293 81.1409 122.117 80.8584 122.973 80.7642C124.04 80.6433 125.119 80.823 126.09 81.2831Z" fill="#FFB7B7"/>
<path d="M120.578 96.2056C120.578 96.2056 127.77 100.569 130.796 92.2686L140.93 118.951L137.918 124.217L137.483 124.253C135.687 124.403 133.881 124.114 132.22 123.412C130.56 122.71 129.095 121.616 127.951 120.223C125.618 117.381 124.029 114.003 123.329 110.394L120.578 96.2056Z" fill="#E5E5E5"/>
</g>
<defs>
<clipPath id="clip0_473_14027">
<rect width="216.42" height="200" fill="white"/>
</clipPath>
</defs>
</svg>
