<svg width="20" height="20" viewBox="0 0 20 20" fill="none" xmlns="http://www.w3.org/2000/svg">
<path fill-rule="evenodd" clip-rule="evenodd" d="M8.53061 0.357833C9.11828 -0.119278 9.95989 -0.119278 10.5476 0.357834L12.2692 1.75556C12.5104 1.95138 12.8034 2.07275 13.1124 2.10483L15.3181 2.33386C16.071 2.41204 16.6661 3.00714 16.7443 3.76006L16.9733 5.96576C17.0054 6.27479 17.1268 6.56779 17.3226 6.80899L18.7203 8.53061C19.1974 9.11828 19.1974 9.95989 18.7203 10.5476L17.3226 12.2692C17.1268 12.5104 17.0054 12.8034 16.9733 13.1124L16.7443 15.3181C16.6661 16.071 16.071 16.6661 15.3181 16.7443L13.1124 16.9733C12.8034 17.0054 12.5104 17.1268 12.2692 17.3226L10.5476 18.7203C9.95989 19.1974 9.11828 19.1974 8.53061 18.7203L6.80899 17.3226C6.56779 17.1268 6.27479 17.0054 5.96576 16.9733L3.76006 16.7443C3.00714 16.6661 2.41204 16.071 2.33386 15.3181L2.10483 13.1124C2.07275 12.8034 1.95138 12.5104 1.75556 12.2692L0.357833 10.5476C-0.119278 9.95989 -0.119278 9.11828 0.357833 8.53061L1.75556 6.809C1.95138 6.56779 2.07275 6.27479 2.10483 5.96576L2.33386 3.76006C2.41204 3.00714 3.00714 2.41204 3.76006 2.33386L5.96576 2.10483C6.27479 2.07275 6.56779 1.95138 6.809 1.75556L8.53061 0.357833Z" fill="black"/>
</svg>
