<svg width="23" height="23" viewBox="0 0 23 23" fill="none" xmlns="http://www.w3.org/2000/svg">
<path d="M13.4166 5.75008C13.4166 5.30506 13.4166 5.08255 13.4377 4.89537C13.6129 3.34031 14.8402 2.11305 16.3952 1.93784C16.5824 1.91675 16.8049 1.91675 17.25 1.91675C17.695 1.91675 17.9175 1.91675 18.1047 1.93784C19.6597 2.11305 20.887 3.34031 21.0622 4.89537C21.0833 5.08255 21.0833 5.30506 21.0833 5.75008C21.0833 6.1951 21.0833 6.41761 21.0622 6.6048C20.887 8.15985 19.6597 9.38711 18.1047 9.56232C17.9175 9.58341 17.695 9.58341 17.25 9.58341C16.8049 9.58341 16.5824 9.58341 16.3952 9.56232C14.8402 9.38711 13.6129 8.15985 13.4377 6.6048C13.4166 6.41761 13.4166 6.1951 13.4166 5.75008Z" fill="white"/>
<path d="M13.4166 16.2918C13.4166 15.8468 13.4166 15.6243 13.4377 15.4371C13.6129 13.8821 14.8402 12.6548 16.3952 12.4796C16.5824 12.4585 16.8049 12.4585 17.25 12.4585C17.695 12.4585 17.9175 12.4585 18.1047 12.4796C19.6597 12.6548 20.887 13.8821 21.0622 15.4371C21.0833 15.6243 21.0833 15.8468 21.0833 16.2918C21.0833 16.7369 21.0833 16.9594 21.0622 17.1465C20.887 18.7016 19.6597 19.9289 18.1047 20.1041C17.9175 20.1252 17.695 20.1252 17.25 20.1252C16.8049 20.1252 16.5824 20.1252 16.3952 20.1041C14.8402 19.9289 13.6129 18.7016 13.4377 17.1465C13.4166 16.9594 13.4166 16.7369 13.4166 16.2918Z" fill="white"/>
<path d="M1.91663 5.75008C1.91663 5.30506 1.91663 5.08255 1.93772 4.89537C2.11293 3.34031 3.34019 2.11305 4.89524 1.93784C5.08243 1.91675 5.30494 1.91675 5.74996 1.91675C6.19498 1.91675 6.41749 1.91675 6.60467 1.93784C8.15973 2.11305 9.38699 3.34031 9.5622 4.89537C9.58329 5.08255 9.58329 5.30506 9.58329 5.75008C9.58329 6.1951 9.58329 6.41761 9.5622 6.6048C9.38699 8.15985 8.15973 9.38711 6.60467 9.56232C6.41749 9.58341 6.19498 9.58341 5.74996 9.58341C5.30494 9.58341 5.08243 9.58341 4.89524 9.56232C3.34019 9.38711 2.11293 8.15985 1.93772 6.6048C1.91663 6.41761 1.91663 6.1951 1.91663 5.75008Z" fill="white"/>
<path d="M1.91663 16.2918C1.91663 15.8468 1.91663 15.6243 1.93772 15.4371C2.11293 13.8821 3.34019 12.6548 4.89524 12.4796C5.08243 12.4585 5.30494 12.4585 5.74996 12.4585C6.19498 12.4585 6.41749 12.4585 6.60467 12.4796C8.15973 12.6548 9.38699 13.8821 9.5622 15.4371C9.58329 15.6243 9.58329 15.8468 9.58329 16.2918C9.58329 16.7369 9.58329 16.9594 9.5622 17.1465C9.38699 18.7016 8.15973 19.9289 6.60467 20.1041C6.41749 20.1252 6.19498 20.1252 5.74996 20.1252C5.30494 20.1252 5.08243 20.1252 4.89524 20.1041C3.34019 19.9289 2.11293 18.7016 1.93772 17.1465C1.91663 16.9594 1.91663 16.7369 1.91663 16.2918Z" fill="white"/>
</svg>
