<svg width="20" height="22" viewBox="0 0 20 22" fill="none" xmlns="http://www.w3.org/2000/svg">
<path fill-rule="evenodd" clip-rule="evenodd" d="M13.75 21.25C17.2018 21.25 20 18.4518 20 15V8.75L19.9555 8.12659C19.6284 3.54767 15.8183 0 11.2277 0H8.77229C4.1817 0 0.371596 3.54766 0.0445306 8.12659L0 8.75V15C0 18.4518 2.79822 21.25 6.25 21.25L13.75 21.25ZM13.2917 7.49716C13.2917 7.49758 13.2917 7.498 13.2917 7.49842L13.2912 7.51664C13.2905 7.53631 13.2891 7.56926 13.2859 7.61356C13.2794 7.70246 13.2661 7.83526 13.2388 7.99695C13.1835 8.32444 13.0746 8.74795 12.8653 9.16106C12.6579 9.57049 12.36 9.95499 11.9279 10.2393C11.5007 10.5204 10.8909 10.7379 10 10.7379C9.10918 10.7379 8.49936 10.5204 8.0722 10.2393C7.64012 9.95499 7.34218 9.57049 7.13479 9.16106C6.92553 8.74796 6.81656 8.32444 6.76127 7.99696C6.73396 7.83526 6.72066 7.70247 6.71423 7.61357C6.71102 7.56927 6.70955 7.53632 6.70889 7.51665L6.70838 7.4975C6.70638 7.01596 6.31537 6.625 5.83336 6.625C5.35012 6.625 4.95837 7.01676 4.95837 7.5L5.83337 7.5C4.95837 7.5 4.95837 7.49954 4.95837 7.5L4.95837 7.50193L4.95838 7.50424L4.95842 7.51002L4.95862 7.5261C4.95882 7.53879 4.9592 7.55542 4.95989 7.57573C4.96126 7.6163 4.96386 7.67172 4.96879 7.73988C4.97864 7.87591 4.99789 8.06443 5.03569 8.28832C5.11061 8.732 5.26206 9.33672 5.57364 9.95184C5.88709 10.5706 6.37041 11.2144 7.11019 11.7012C7.85491 12.1913 8.80758 12.4879 10 12.4879C11.1925 12.4879 12.1452 12.1913 12.8899 11.7012C13.6297 11.2144 14.113 10.5706 14.4264 9.95184C14.738 9.33672 14.8895 8.73201 14.9644 8.28833C15.0022 8.06444 15.0215 7.87591 15.0313 7.73989C15.0362 7.67173 15.0388 7.61631 15.0402 7.57573C15.0409 7.55543 15.0413 7.5388 15.0415 7.52611L15.0417 7.51003L15.0417 7.50425L15.0417 7.50194C15.0417 7.50147 15.0417 7.50001 14.1667 7.5L15.0417 7.50001C15.0417 7.01676 14.65 6.62501 14.1667 6.625C13.6848 6.62499 13.2938 7.01565 13.2917 7.49716C13.2917 7.49684 13.2917 7.49748 13.2917 7.49716ZM13.2917 7.49842C13.2917 7.49817 13.2917 7.49867 13.2917 7.49842V7.49842Z" fill="white"/>
</svg>
