<svg width="24" height="24" viewBox="0 0 24 24" fill="none" xmlns="http://www.w3.org/2000/svg">
<path d="M20.0383 6.82018L14.2783 2.79018C12.7083 1.69018 10.2983 1.75018 8.78828 2.92018L3.77828 6.83018C2.77828 7.61018 1.98828 9.21018 1.98828 10.4702V17.3702C1.98828 19.9202 4.05828 22.0002 6.60828 22.0002H17.3883C19.9383 22.0002 22.0083 19.9302 22.0083 17.3802V10.6002C22.0083 9.25018 21.1383 7.59018 20.0383 6.82018ZM12.7483 18.0002C12.7483 18.4102 12.4083 18.7502 11.9983 18.7502C11.5883 18.7502 11.2483 18.4102 11.2483 18.0002V15.0002C11.2483 14.5902 11.5883 14.2502 11.9983 14.2502C12.4083 14.2502 12.7483 14.5902 12.7483 15.0002V18.0002Z" fill="white"/>
</svg>
