<svg width="24" height="24" viewBox="0 0 24 24" fill="none" xmlns="http://www.w3.org/2000/svg">
<path d="M11.5 21C16.7467 21 21 16.7467 21 11.5C21 6.25329 16.7467 2 11.5 2C6.25329 2 2 6.25329 2 11.5C2 16.7467 6.25329 21 11.5 21Z" fill="white"/>
<path d="M21.2986 22.0001C21.1186 22.0001 20.9386 21.9301 20.8086 21.8001L18.9486 19.9401C18.6786 19.6701 18.6786 19.2301 18.9486 18.9501C19.2186 18.6801 19.6586 18.6801 19.9386 18.9501L21.7986 20.8101C22.0686 21.0801 22.0686 21.5201 21.7986 21.8001C21.6586 21.9301 21.4786 22.0001 21.2986 22.0001Z" fill="white"/>
</svg>
