<svg width="24" height="24" viewBox="0 0 24 24" fill="none" xmlns="http://www.w3.org/2000/svg">
<path d="M12 22C17.5228 22 22 17.5228 22 12C22 6.47715 17.5228 2 12 2C6.47715 2 2 6.47715 2 12C2 17.5228 6.47715 22 12 22Z" stroke="#080210" stroke-width="1.5" stroke-linecap="round" stroke-linejoin="round"/>
<path d="M14.7758 10.0625C17.0258 10.2563 17.9445 11.4125 17.9445 13.9438V14.025C17.9445 16.8187 16.8258 17.9375 14.032 17.9375H9.96328C7.16953 17.9375 6.05078 16.8187 6.05078 14.025V13.9438C6.05078 11.4313 6.95703 10.275 9.16953 10.0688" stroke="#080210" stroke-width="1.5" stroke-linecap="round" stroke-linejoin="round"/>
<path d="M12 13.8752V6.7627" stroke="#080210" stroke-width="1.5" stroke-linecap="round" stroke-linejoin="round"/>
<path d="M14.0938 8.15625L12 6.0625L9.90625 8.15625" stroke="#080210" stroke-width="1.5" stroke-linecap="round" stroke-linejoin="round"/>
</svg>
