<svg width="14" height="13" viewBox="0 0 14 13" fill="none" xmlns="http://www.w3.org/2000/svg">
<path d="M5.33505 0.776018C5.99964 -0.258674 7.51196 -0.258672 8.17654 0.77602L9.27854 2.49172C9.5072 2.84772 9.86119 3.10491 10.2704 3.21237L12.2427 3.73025C13.4321 4.04257 13.8994 5.48087 13.1208 6.43267L11.8296 8.01091C11.5617 8.33839 11.4264 8.75453 11.4507 9.17695L11.5676 11.2127C11.6381 12.4404 10.4147 13.3293 9.26881 12.8829L7.36882 12.1426C6.97457 11.989 6.53702 11.989 6.14277 12.1426L4.24278 12.8829C3.09694 13.3293 1.87345 12.4404 1.94396 11.2127L2.06089 9.17695C2.08515 8.75453 1.94994 8.33839 1.68202 8.01091L0.390832 6.43267C-0.38785 5.48087 0.0794836 4.04257 1.2689 3.73025L3.24116 3.21237C3.6504 3.10491 4.00439 2.84772 4.23305 2.49171L5.33505 0.776018Z" fill="#FFA826"/>
</svg>
