<svg width="26" height="26" viewBox="0 0 26 26" fill="none" xmlns="http://www.w3.org/2000/svg">
<path d="M13.0013 23.8332C18.9844 23.8332 23.8346 18.9829 23.8346 12.9998C23.8346 7.01675 18.9844 2.1665 13.0013 2.1665C7.01822 2.1665 2.16797 7.01675 2.16797 12.9998C2.16797 18.9829 7.01822 23.8332 13.0013 23.8332Z" stroke="#080210" stroke-width="1.5" stroke-linecap="round" stroke-linejoin="round"/>
<path d="M13.3559 18.904C13.1609 18.969 12.8251 18.969 12.6301 18.904C10.9401 18.3299 7.14844 15.914 7.14844 11.819C7.14844 10.0099 8.6001 8.54736 10.3984 8.54736C11.4601 8.54736 12.4026 9.05652 12.9984 9.85819C13.5834 9.06735 14.5368 8.54736 15.5984 8.54736C17.3968 8.54736 18.8484 10.0099 18.8484 11.819C18.8484 15.914 15.0568 18.3299 13.3559 18.904Z" stroke="#080210" stroke-width="1.5" stroke-linecap="round" stroke-linejoin="round"/>
</svg>
