<svg width="130" height="130" viewBox="0 0 130 130" fill="none" xmlns="http://www.w3.org/2000/svg">
<path d="M116.782 58.175L109.416 49.6167C108.007 47.9917 106.87 44.9584 106.87 42.7917V33.5834C106.87 27.8417 102.157 23.1292 96.4156 23.1292H87.2073C85.0948 23.1292 82.0073 21.9917 80.3823 20.5834L71.824 13.2167C68.0865 10.0209 61.9656 10.0209 58.174 13.2167L49.6698 20.6375C48.0448 21.9917 44.9573 23.1292 42.8448 23.1292H33.474C27.7323 23.1292 23.0198 27.8417 23.0198 33.5834V42.8459C23.0198 44.9584 21.8823 47.9917 20.5281 49.6167L13.2156 58.2292C10.074 61.9667 10.074 68.0334 13.2156 71.7709L20.5281 80.3834C21.8823 82.0084 23.0198 85.0417 23.0198 87.1542V96.4167C23.0198 102.158 27.7323 106.871 33.474 106.871H42.8448C44.9573 106.871 48.0448 108.008 49.6698 109.417L58.2281 116.783C61.9656 119.979 68.0865 119.979 71.8781 116.783L80.4365 109.417C82.0615 108.008 85.0948 106.871 87.2615 106.871H96.4698C102.211 106.871 106.924 102.158 106.924 96.4167V87.2084C106.924 85.0959 108.061 82.0084 109.47 80.3834L116.836 71.825C119.978 68.0875 119.978 61.9125 116.782 58.175ZM87.5323 54.7625L61.3698 80.925C60.6115 81.6833 59.5823 82.1167 58.499 82.1167C57.4156 82.1167 56.3865 81.6833 55.6281 80.925L42.5198 67.8167C40.949 66.2459 40.949 63.6459 42.5198 62.075C44.0906 60.5042 46.6906 60.5042 48.2615 62.075L58.499 72.3125L81.7906 49.0209C83.3615 47.45 85.9614 47.45 87.5323 49.0209C89.1031 50.5917 89.1031 53.1917 87.5323 54.7625Z" fill="#BB9B6A"/>
</svg>
